# xmcd
#
# Track frame offsets:
#	4908
#	23697
#	32645
#	59894
#	67428
#	76189
#	94123
#	108392
#	117935
#	129973
#	140456
#	152391
#
# Disc length: 2204 seconds
#
# Revision: 2
# Processed by: cddbd v1.5.1PL2 Copyright (c) Steve Scherf et al.
# Submitted via: jetAudio 5
#
DISCID=a7085b0c
DTITLE=Gavin Castleton - Hypotenuse
DYEAR=2004
DGENRE=
TTITLE0=Builder
TTITLE1=Halloween
TTITLE2=Dynasty
TTITLE3=When You Come Home Bring Novocaine
TTITLE4=Leave a Mess
TTITLE5=Hard to Believe
TTITLE6=Terminals
TTITLE7=Taking Flight
TTITLE8=Why Wake Up
TTITLE9=Hibernatal
TTITLE10=I Wade Out...
TTITLE11=Fuel Again
EXTD=
EXTT0=
EXTT1=
EXTT2=
EXTT3=
EXTT4=
EXTT5=
EXTT6=
EXTT7=
EXTT8=
EXTT9=
EXTT10=
EXTT11=
PLAYORDER=
